<svg width="89" height="89" viewBox="0 0 89 89" fill="none" xmlns="http://www.w3.org/2000/svg">
<rect width="89" height="89" rx="18" fill="url(#paint0_linear_270_1540)"/>
<path d="M37.0371 19C37.0371 17.8954 37.9325 17 39.0371 17H50.0741C51.1787 17 52.0741 17.8954 52.0741 19V32.037H37.0371V19Z" stroke="white" stroke-width="3"/>
<path d="M57.0742 19C57.0742 17.8954 57.9696 17 59.0742 17H71.1113C71.6635 17 72.1113 17.4477 72.1113 18V30.037C72.1113 31.1416 71.2158 32.037 70.1113 32.037H57.0742V19Z" fill="#00CA68" stroke="#00CA68" stroke-width="3"/>
<path d="M17 18C17 17.4477 17.4477 17 18 17H30.037C31.1416 17 32.037 17.8954 32.037 19V32.037H19C17.8954 32.037 17 31.1416 17 30.037V18Z" fill="#00CA68" stroke="#00CA68" stroke-width="3"/>
<path d="M37.0371 39.0371C37.0371 37.9325 37.9325 37.0371 39.0371 37.0371H52.0741V50.0741C52.0741 51.1787 51.1787 52.0741 50.0741 52.0741H37.0371V39.0371Z" fill="#00CA68" stroke="#00CA68" stroke-width="3"/>
<path d="M57.0742 39.0371C57.0742 37.9325 57.9696 37.0371 59.0742 37.0371H70.1113C71.2158 37.0371 72.1113 37.9325 72.1113 39.0371V50.0741C72.1113 51.1787 71.2158 52.0741 70.1113 52.0741H57.0742V39.0371Z" stroke="white" stroke-width="3"/>
<path d="M17 39.0371C17 37.9325 17.8954 37.0371 19 37.0371H30.037C31.1416 37.0371 32.037 37.9325 32.037 39.0371V52.0741H19C17.8954 52.0741 17 51.1787 17 50.0741V39.0371Z" stroke="white" stroke-width="3"/>
<path d="M37.0371 70.1113C37.0371 71.2159 37.9325 72.1113 39.0371 72.1113H50.0741C51.1787 72.1113 52.0741 71.2159 52.0741 70.1113V57.0743H37.0371V70.1113Z" stroke="white" stroke-width="3"/>
<path d="M57.0742 57.0742H70.1113C71.2158 57.0742 72.1113 57.9696 72.1113 59.0742V71.1113C72.1113 71.6635 71.6635 72.1113 71.1113 72.1113H59.0742C57.9696 72.1113 57.0742 71.2158 57.0742 70.1113V57.0742Z" fill="#00CA68" stroke="#00CA68" stroke-width="3"/>
<path d="M17 70.1113C17 71.2159 17.8954 72.1113 19 72.1113H30.037C31.1416 72.1113 32.037 71.2159 32.037 70.1113V57.0743H19C17.8954 57.0743 17 57.9697 17 59.0743V70.1113Z" stroke="white" stroke-width="3"/>
<defs>
<linearGradient id="paint0_linear_270_1540" x1="82.3744" y1="-5.48033e-07" x2="6.62559" y2="89" gradientUnits="userSpaceOnUse">
<stop stop-color="#3E4348"/>
<stop offset="1" stop-color="#666C72"/>
</linearGradient>
</defs>
</svg>
